<svg data-v-423bf9ae="" xmlns="http://www.w3.org/2000/svg" viewBox="0 0 585 107" class="iconLeft"><!----><!----><!----><g data-v-423bf9ae="" id="b4196e0e-79de-4316-9ab7-0756c0c79396" fill="black" transform="matrix(4.294917598649483,0,0,4.294917598649483,98.04735237661805,13.273820093275525)"><path d="M5.46 3.75L5.46 3.75Q6.79 3.75 7.77 4.19L7.77 4.19L7.77 4.19Q8.75 4.63 9.28 5.45L9.28 5.45L9.28 5.45Q9.81 6.27 9.81 7.38L9.81 7.38L9.81 7.38Q9.81 8.48 9.28 9.30L9.28 9.30L9.28 9.30Q8.75 10.11 7.77 10.55L7.77 10.55L7.77 10.55Q6.79 10.99 5.46 10.99L5.46 10.99L3.75 10.99L3.75 13.55L0.98 13.55L0.98 3.75L5.46 3.75ZM5.29 8.81L5.29 8.81Q6.15 8.81 6.58 8.43L6.58 8.43L6.58 8.43Q7.01 8.06 7.01 7.38L7.01 7.38L7.01 7.38Q7.01 6.69 6.58 6.31L6.58 6.31L6.58 6.31Q6.15 5.94 5.29 5.94L5.29 5.94L3.75 5.94L3.75 8.81L5.29 8.81ZM18.93 9.77L18.93 9.77Q18.93 9.80 18.89 10.43L18.89 10.43L13.37 10.43L13.37 10.43Q13.54 11.02 14.02 11.33L14.02 11.33L14.02 11.33Q14.50 11.65 15.23 11.65L15.23 11.65L15.23 11.65Q15.78 11.65 16.18 11.49L16.18 11.49L16.18 11.49Q16.58 11.34 16.98 10.99L16.98 10.99L18.38 12.45L18.38 12.45Q17.28 13.68 15.15 13.68L15.15 13.68L15.15 13.68Q13.82 13.68 12.81 13.17L12.81 13.17L12.81 13.17Q11.80 12.67 11.25 11.77L11.25 11.77L11.25 11.77Q10.70 10.88 10.70 9.74L10.70 9.74L10.70 9.74Q10.70 8.62 11.23 7.73L11.23 7.73L11.23 7.73Q11.77 6.85 12.73 6.34L12.73 6.34L12.73 6.34Q13.68 5.84 14.87 5.84L14.87 5.84L14.87 5.84Q16.00 5.84 16.93 6.31L16.93 6.31L16.93 6.31Q17.85 6.78 18.39 7.66L18.39 7.66L18.39 7.66Q18.93 8.55 18.93 9.77L18.93 9.77ZM14.88 7.73L14.88 7.73Q14.27 7.73 13.85 8.08L13.85 8.08L13.85 8.08Q13.44 8.43 13.33 9.03L13.33 9.03L16.44 9.03L16.44 9.03Q16.32 8.43 15.91 8.08L15.91 8.08L15.91 8.08Q15.50 7.73 14.88 7.73L14.88 7.73ZM22.92 13.68L22.92 13.68Q21.97 13.68 21.04 13.46L21.04 13.46L21.04 13.46Q20.12 13.24 19.56 12.89L19.56 12.89L20.36 11.07L20.36 11.07Q20.87 11.40 21.59 11.58L21.59 11.58L21.59 11.58Q22.30 11.77 23.00 11.77L23.00 11.77L23.00 11.77Q23.65 11.77 23.92 11.64L23.92 11.64L23.92 11.64Q24.19 11.51 24.19 11.26L24.19 11.26L24.19 11.26Q24.19 11.00 23.86 10.90L23.86 10.90L23.86 10.90Q23.53 10.79 22.82 10.70L22.82 10.70L22.82 10.70Q21.91 10.58 21.27 10.40L21.27 10.40L21.27 10.40Q20.64 10.22 20.17 9.73L20.17 9.73L20.17 9.73Q19.71 9.24 19.71 8.36L19.71 8.36L19.71 8.36Q19.71 7.63 20.15 7.06L20.15 7.06L20.15 7.06Q20.58 6.50 21.41 6.17L21.41 6.17L21.41 6.17Q22.25 5.84 23.41 5.84L23.41 5.84L23.41 5.84Q24.23 5.84 25.05 6.01L25.05 6.01L25.05 6.01Q25.86 6.17 26.40 6.48L26.40 6.48L25.61 8.29L25.61 8.29Q24.60 7.73 23.42 7.73L23.42 7.73L23.42 7.73Q22.79 7.73 22.50 7.87L22.50 7.87L22.50 7.87Q22.20 8.02 22.20 8.26L22.20 8.26L22.20 8.26Q22.20 8.53 22.53 8.63L22.53 8.63L22.53 8.63Q22.85 8.74 23.59 8.85L23.59 8.85L23.59 8.85Q24.53 8.99 25.14 9.17L25.14 9.17L25.14 9.17Q25.76 9.35 26.21 9.83L26.21 9.83L26.21 9.83Q26.67 10.32 26.67 11.19L26.67 11.19L26.67 11.19Q26.67 11.90 26.24 12.47L26.24 12.47L26.24 12.47Q25.80 13.03 24.95 13.36L24.95 13.36L24.95 13.36Q24.11 13.68 22.92 13.68L22.92 13.68ZM31.63 13.68L31.63 13.68Q30.41 13.68 29.43 13.17L29.43 13.17L29.43 13.17Q28.45 12.67 27.89 11.77L27.89 11.77L27.89 11.77Q27.34 10.88 27.34 9.74L27.34 9.74L27.34 9.74Q27.34 8.62 27.89 7.73L27.89 7.73L27.89 7.73Q28.45 6.83 29.42 6.33L29.42 6.33L29.42 6.33Q30.39 5.84 31.63 5.84L31.63 5.84L31.63 5.84Q32.86 5.84 33.84 6.33L33.84 6.33L33.84 6.33Q34.82 6.83 35.36 7.72L35.36 7.72L35.36 7.72Q35.91 8.61 35.91 9.74L35.91 9.74L35.91 9.74Q35.91 10.88 35.36 11.77L35.36 11.77L35.36 11.77Q34.82 12.67 33.84 13.17L33.84 13.17L33.84 13.17Q32.86 13.68 31.63 13.68L31.63 13.68ZM31.63 11.56L31.63 11.56Q32.33 11.56 32.77 11.08L32.77 11.08L32.77 11.08Q33.22 10.60 33.22 9.74L33.22 9.74L33.22 9.74Q33.22 8.90 32.77 8.43L32.77 8.43L32.77 8.43Q32.33 7.95 31.63 7.95L31.63 7.95L31.63 7.95Q30.93 7.95 30.48 8.43L30.48 8.43L30.48 8.43Q30.03 8.90 30.03 9.74L30.03 9.74L30.03 9.74Q30.03 10.60 30.48 11.08L30.48 11.08L30.48 11.08Q30.93 11.56 31.63 11.56L31.63 11.56ZM42.08 5.84L42.08 5.84Q43.50 5.84 44.36 6.68L44.36 6.68L44.36 6.68Q45.22 7.52 45.22 9.21L45.22 9.21L45.22 13.55L42.56 13.55L42.56 9.65L42.56 9.65Q42.56 8.09 41.31 8.09L41.31 8.09L41.31 8.09Q40.63 8.09 40.21 8.54L40.21 8.54L40.21 8.54Q39.80 8.99 39.80 9.88L39.80 9.88L39.80 13.55L37.14 13.55L37.14 5.96L39.68 5.96L39.68 6.79L39.68 6.79Q40.12 6.33 40.74 6.08L40.74 6.08L40.74 6.08Q41.36 5.84 42.08 5.84L42.08 5.84ZM50.12 5.84L50.12 5.84Q52.01 5.84 53.00 6.70L53.00 6.70L53.00 6.70Q54.00 7.56 54.00 9.34L54.00 9.34L54.00 13.55L51.52 13.55L51.52 12.57L51.52 12.57Q50.95 13.68 49.28 13.68L49.28 13.68L49.28 13.68Q48.40 13.68 47.75 13.37L47.75 13.37L47.75 13.37Q47.11 13.06 46.78 12.54L46.78 12.54L46.78 12.54Q46.45 12.01 46.45 11.34L46.45 11.34L46.45 11.34Q46.45 10.26 47.28 9.67L47.28 9.67L47.28 9.67Q48.10 9.07 49.83 9.07L49.83 9.07L51.34 9.07L51.34 9.07Q51.27 7.87 49.73 7.87L49.73 7.87L49.73 7.87Q49.18 7.87 48.62 8.04L48.62 8.04L48.62 8.04Q48.06 8.22 47.67 8.53L47.67 8.53L46.77 6.72L46.77 6.72Q47.40 6.30 48.31 6.07L48.31 6.07L48.31 6.07Q49.21 5.84 50.12 5.84L50.12 5.84ZM50.02 12.00L50.02 12.00Q50.48 12.00 50.83 11.77L50.83 11.77L50.83 11.77Q51.18 11.55 51.34 11.12L51.34 11.12L51.34 10.46L50.19 10.46L50.19 10.46Q49.03 10.46 49.03 11.23L49.03 11.23L49.03 11.23Q49.03 11.58 49.29 11.79L49.29 11.79L49.29 11.79Q49.56 12.00 50.02 12.00L50.02 12.00ZM64.76 13.75L64.76 13.75Q63.22 13.75 62.00 13.10L62.00 13.10L62.00 13.10Q60.77 12.45 60.07 11.28L60.07 11.28L60.07 11.28Q59.37 10.12 59.37 8.65L59.37 8.65L59.37 8.65Q59.37 7.18 60.07 6.02L60.07 6.02L60.07 6.02Q60.77 4.86 62.00 4.21L62.00 4.21L62.00 4.21Q63.22 3.56 64.76 3.56L64.76 3.56L64.76 3.56Q66.11 3.56 67.19 4.03L67.19 4.03L67.19 4.03Q68.26 4.51 68.98 5.40L68.98 5.40L67.21 7.00L67.21 7.00Q66.26 5.85 64.90 5.85L64.90 5.85L64.90 5.85Q64.11 5.85 63.48 6.20L63.48 6.20L63.48 6.20Q62.86 6.55 62.52 7.19L62.52 7.19L62.52 7.19Q62.17 7.83 62.17 8.65L62.17 8.65L62.17 8.65Q62.17 9.48 62.52 10.11L62.52 10.11L62.52 10.11Q62.86 10.75 63.48 11.10L63.48 11.10L63.48 11.10Q64.11 11.45 64.90 11.45L64.90 11.45L64.90 11.45Q66.26 11.45 67.21 10.30L67.21 10.30L68.98 11.90L68.98 11.90Q68.26 12.80 67.19 13.27L67.19 13.27L67.19 13.27Q66.11 13.75 64.76 13.75L64.76 13.75ZM70.08 13.55L70.08 5.96L72.74 5.96L72.74 13.55L70.08 13.55ZM71.41 5.12L71.41 5.12Q70.69 5.12 70.24 4.72L70.24 4.72L70.24 4.72Q69.79 4.31 69.79 3.71L69.79 3.71L69.79 3.71Q69.79 3.11 70.24 2.70L70.24 2.70L70.24 2.70Q70.69 2.30 71.41 2.30L71.41 2.30L71.41 2.30Q72.14 2.30 72.59 2.68L72.59 2.68L72.59 2.68Q73.04 3.07 73.04 3.67L73.04 3.67L73.04 3.67Q73.04 4.30 72.59 4.71L72.59 4.71L72.59 4.71Q72.14 5.12 71.41 5.12L71.41 5.12ZM74.47 13.55L74.47 3.16L77.13 3.16L77.13 13.55L74.47 13.55ZM82.08 5.84L82.08 5.84Q83.97 5.84 84.97 6.70L84.97 6.70L84.97 6.70Q85.96 7.56 85.96 9.34L85.96 9.34L85.96 13.55L83.48 13.55L83.48 12.57L83.48 12.57Q82.91 13.68 81.24 13.68L81.24 13.68L81.24 13.68Q80.36 13.68 79.72 13.37L79.72 13.37L79.72 13.37Q79.07 13.06 78.74 12.54L78.74 12.54L78.74 12.54Q78.41 12.01 78.41 11.34L78.41 11.34L78.41 11.34Q78.41 10.26 79.24 9.67L79.24 9.67L79.24 9.67Q80.07 9.07 81.79 9.07L81.79 9.07L83.30 9.07L83.30 9.07Q83.23 7.87 81.69 7.87L81.69 7.87L81.69 7.87Q81.14 7.87 80.58 8.04L80.58 8.04L80.58 8.04Q80.02 8.22 79.63 8.53L79.63 8.53L78.74 6.72L78.74 6.72Q79.37 6.30 80.27 6.07L80.27 6.07L80.27 6.07Q81.17 5.84 82.08 5.84L82.08 5.84ZM81.98 12.00L81.98 12.00Q82.45 12.00 82.80 11.77L82.80 11.77L82.80 11.77Q83.15 11.55 83.30 11.12L83.30 11.12L83.30 10.46L82.15 10.46L82.15 10.46Q80.99 10.46 80.99 11.23L80.99 11.23L80.99 11.23Q80.99 11.58 81.26 11.79L81.26 11.79L81.26 11.79Q81.52 12.00 81.98 12.00L81.98 12.00ZM91.52 13.68L91.52 13.68Q90.26 13.68 89.26 13.17L89.26 13.17L89.26 13.17Q88.27 12.67 87.72 11.77L87.72 11.77L87.72 11.77Q87.16 10.88 87.16 9.74L87.16 9.74L87.16 9.74Q87.16 8.61 87.72 7.72L87.72 7.72L87.72 7.72Q88.27 6.83 89.26 6.33L89.26 6.33L89.26 6.33Q90.26 5.84 91.52 5.84L91.52 5.84L91.52 5.84Q92.81 5.84 93.74 6.39L93.74 6.39L93.74 6.39Q94.68 6.94 95.07 7.92L95.07 7.92L93.02 8.97L93.02 8.97Q92.50 7.95 91.50 7.95L91.50 7.95L91.50 7.95Q90.79 7.95 90.32 8.43L90.32 8.43L90.32 8.43Q89.85 8.90 89.85 9.74L89.85 9.74L89.85 9.74Q89.85 10.60 90.32 11.08L90.32 11.08L90.32 11.08Q90.79 11.56 91.50 11.56L91.50 11.56L91.50 11.56Q92.50 11.56 93.02 10.54L93.02 10.54L95.07 11.59L95.07 11.59Q94.68 12.57 93.74 13.13L93.74 13.13L93.74 13.13Q92.81 13.68 91.52 13.68L91.52 13.68ZM99.32 5.84L99.32 5.84Q101.21 5.84 102.20 6.70L102.20 6.70L102.20 6.70Q103.19 7.56 103.19 9.34L103.19 9.34L103.19 13.55L100.72 13.55L100.72 12.57L100.72 12.57Q100.14 13.68 98.48 13.68L98.48 13.68L98.48 13.68Q97.59 13.68 96.95 13.37L96.95 13.37L96.95 13.37Q96.31 13.06 95.98 12.54L95.98 12.54L95.98 12.54Q95.65 12.01 95.65 11.34L95.65 11.34L95.65 11.34Q95.65 10.26 96.47 9.67L96.47 9.67L96.47 9.67Q97.30 9.07 99.02 9.07L99.02 9.07L100.53 9.07L100.53 9.07Q100.46 7.87 98.92 7.87L98.92 7.87L98.92 7.87Q98.38 7.87 97.82 8.04L97.82 8.04L97.82 8.04Q97.26 8.22 96.87 8.53L96.87 8.53L95.97 6.72L95.97 6.72Q96.60 6.30 97.50 6.07L97.50 6.07L97.50 6.07Q98.41 5.84 99.32 5.84L99.32 5.84ZM99.22 12.00L99.22 12.00Q99.68 12.00 100.03 11.77L100.03 11.77L100.03 11.77Q100.38 11.55 100.53 11.12L100.53 11.12L100.53 10.46L99.39 10.46L99.39 10.46Q98.22 10.46 98.22 11.23L98.22 11.23L98.22 11.23Q98.22 11.58 98.49 11.79L98.49 11.79L98.49 11.79Q98.76 12.00 99.22 12.00L99.22 12.00ZM109.65 5.84L109.65 5.84Q110.68 5.84 111.53 6.32L111.53 6.32L111.53 6.32Q112.38 6.80 112.88 7.69L112.88 7.69L112.88 7.69Q113.37 8.58 113.37 9.76L113.37 9.76L113.37 9.76Q113.37 10.93 112.88 11.82L112.88 11.82L112.88 11.82Q112.38 12.71 111.53 13.20L111.53 13.20L111.53 13.20Q110.68 13.68 109.65 13.68L109.65 13.68L109.65 13.68Q108.32 13.68 107.53 12.88L107.53 12.88L107.53 16.27L104.87 16.27L104.87 5.96L107.41 5.96L107.41 6.72L107.41 6.72Q108.15 5.84 109.65 5.84L109.65 5.84ZM109.09 11.56L109.09 11.56Q109.79 11.56 110.24 11.08L110.24 11.08L110.24 11.08Q110.68 10.60 110.68 9.76L110.68 9.76L110.68 9.76Q110.68 8.92 110.24 8.43L110.24 8.43L110.24 8.43Q109.79 7.95 109.09 7.95L109.09 7.95L109.09 7.95Q108.39 7.95 107.94 8.43L107.94 8.43L107.94 8.43Q107.49 8.92 107.49 9.76L107.49 9.76L107.49 9.76Q107.49 10.60 107.94 11.08L107.94 11.08L107.94 11.08Q108.39 11.56 109.09 11.56L109.09 11.56Z"></path></g><!----><g data-v-423bf9ae="" id="da3f98d3-b22d-476a-a19b-283d871fcdc7" transform="matrix(1.0868111504448785,0,0,1.0868111504448785,-13.255261890115804,-0.23894260335429607)" stroke="none" fill="black"><g clip-rule="evenodd"><path d="M12.983 10.59l17.018 88.223-5.872-59.049 29.021-1.892-.054-9.883L64.549 1 53.622 18.977z"></path><path d="M59.389 54.548l5.16-53.541-8.74 39.716-19.612 1.045 1.57 20.462-7.766 36.583 12.057-39.899z"></path><path d="M62.8 67.182l.549-10.453-15.979 3.755-.032 11.797-17.337 26.532 21.68-27.616zM65.711 62.394l14.841-4.731 1.509-12.532-15.899 2.095zM72.07 44.502l10.988-1.417 1.581-10.278-8.079-.373L64.549 1l8.43 30.967z"></path><path d="M87.413 31.294l1.256-9.506-9.544-2.694L64.549 1l14.483 22.437-.422 7z"></path></g></g><!----></svg>